<?xml version="1.0" encoding="iso-8859-1"?>
<!-- Generator: Adobe Illustrator 19.0.0, SVG Export Plug-In . SVG Version: 6.00 Build 0)  -->
<svg version="1.1" id="Capa_1" xmlns="http://www.w3.org/2000/svg" xmlns:xlink="http://www.w3.org/1999/xlink" x="0px" y="0px"
	 viewBox="0 0 384 384" style="enable-background:new 0 0 384 384;" xml:space="preserve">
<circle style="fill:#EA8953;" cx="192" cy="192" r="192"/>
<path style="opacity:0.1;enable-background:new    ;" d="M296.64,81.997H87.36c-2.96,0-5.36,2.4-5.36,5.36v209.319
	c0,1.761,0.88,3.32,2.2,4.28l81.161,81.161C174.072,383.328,182.956,384,192,384c106.039,0,192-85.962,192-192
	c0-9.062-0.674-17.964-1.888-26.691L300.76,83.957C299.8,82.757,298.32,81.997,296.64,81.997z"/>
<path style="fill:#3A556A;" d="M296.657,82.003H87.35c-2.953,0-5.347,2.394-5.347,5.346v31.274h220V87.349
	C302.003,84.397,299.609,82.003,296.657,82.003z"/>
<rect x="90.44" y="94.276" style="fill:#EBF0F3;" width="137.828" height="12.08"/>
<circle style="fill:#FCD462;" cx="245.52" cy="100.32" r="6.04"/>
<circle style="fill:#44C4A1;" cx="267.08" cy="100.32" r="6.04"/>
<circle style="fill:#E56353;" cx="288.6" cy="100.32" r="6.04"/>
<path style="fill:#FFFFFF;" d="M301.997,118.636v178.04c0,2.92-2.4,5.32-5.32,5.32H87.356c-2.96,0-5.359-2.4-5.359-5.32v-178.04
	H301.997z"/>
<g>
	<path style="fill:#64798A;" d="M142.67,180.568v-10.133h8.867v10.133h6.652v8.472h-6.652v13.934h-8.867V189.04h-23.75v-8.234
		l20.348-33.172h10.211l-20.027,32.934H142.67z"/>
	<path style="fill:#64798A;" d="M171.569,195.81c-3.75-5.199-5.621-12.154-5.621-20.863c0-8.707,1.871-15.662,5.621-20.861
		c3.746-5.197,9.394-7.797,16.941-7.797s13.195,2.6,16.942,7.797c3.75,5.199,5.621,12.154,5.621,20.861
		c0,8.709-1.871,15.664-5.621,20.863c-3.746,5.199-9.395,7.797-16.942,7.797S175.315,201.009,171.569,195.81z M178.256,159.984
		c-2.187,3.801-3.285,8.789-3.285,14.963c0,6.176,1.098,11.164,3.285,14.965c2.192,3.799,5.61,5.699,10.254,5.699
		c4.645,0,8.035-1.887,10.176-5.66c2.136-3.774,3.203-8.776,3.203-15.004c0-6.226-1.066-11.228-3.203-15.002
		c-2.141-3.773-5.531-5.66-10.176-5.66C183.866,154.284,180.448,156.185,178.256,159.984z"/>
	<path style="fill:#64798A;" d="M242.424,180.568v-10.133h8.867v10.133h6.652v8.472h-6.652v13.934h-8.867V189.04h-23.75v-8.234
		l20.348-33.172h10.211l-20.028,32.934H242.424z"/>
</g>
<g>
	<path style="fill:#E56353;" d="M143.877,227.689c1.219,1.019,1.828,2.59,1.828,4.711c0,2.121-0.621,3.676-1.867,4.66
		c-1.242,0.986-3.152,1.479-5.726,1.479h-3.106v5.136h-2.957v-17.514h6.016C140.721,226.161,142.658,226.671,143.877,227.689z
		 M141.784,234.917c0.594-0.625,0.89-1.545,0.89-2.756c0-1.211-0.375-2.066-1.129-2.568c-0.75-0.5-1.93-0.752-3.531-0.752h-3.008
		v7.016h3.434C140.076,235.856,141.19,235.544,141.784,234.917z"/>
	<path style="fill:#E56353;" d="M159.334,243.675h-2.555v-1.779c-1.102,1.32-2.582,1.98-4.434,1.98
		c-1.387,0-2.535-0.392-3.445-1.178c-0.914-0.785-1.367-1.834-1.367-3.144c0-1.313,0.484-2.293,1.453-2.946
		c0.968-0.65,2.281-0.976,3.934-0.976h3.633v-0.502c0-1.77-0.984-2.654-2.957-2.654c-1.234,0-2.52,0.451-3.859,1.352l-1.25-1.754
		c1.617-1.285,3.457-1.928,5.512-1.928c1.57,0,2.852,0.396,3.844,1.19c0.996,0.793,1.492,2.041,1.492,3.746V243.675z
		 M156.53,238.714v-1.127h-3.156c-2.023,0-3.035,0.635-3.035,1.904c0,0.65,0.254,1.148,0.754,1.49c0.5,0.342,1.199,0.514,2.09,0.514
		c0.894,0,1.676-0.25,2.344-0.752C156.194,240.241,156.53,239.566,156.53,238.714z"/>
	<path style="fill:#E56353;" d="M175.569,230.345v11.627c0,2.355-0.637,4.121-1.914,5.299c-1.278,1.178-2.922,1.766-4.926,1.766
		s-3.816-0.625-5.438-1.879l1.328-2.129c1.304,0.984,2.621,1.478,3.949,1.478c1.328,0,2.379-0.344,3.156-1.027
		c0.778-0.686,1.164-1.779,1.164-3.283v-1.703c-0.418,0.785-1.016,1.412-1.793,1.879c-0.774,0.467-1.648,0.701-2.617,0.701
		c-1.77,0-3.223-0.617-4.359-1.853c-1.137-1.236-1.703-2.774-1.703-4.612c0-1.836,0.566-3.373,1.703-4.609
		c1.136-1.236,2.586-1.854,4.348-1.854c1.762,0,3.195,0.727,4.297,2.18v-1.98H175.569z M165.17,236.497
		c0,1.094,0.34,2.037,1.016,2.83c0.676,0.795,1.586,1.192,2.73,1.192c1.144,0,2.074-0.385,2.781-1.154
		c0.711-0.768,1.066-1.723,1.066-2.867c0-1.144-0.359-2.113-1.078-2.908c-0.719-0.793-1.645-1.19-2.781-1.19
		c-1.137,0-2.043,0.41-2.719,1.228C165.51,234.446,165.17,235.404,165.17,236.497z"/>
	<path style="fill:#E56353;" d="M192.034,238.238h-10.449c0.066,0.969,0.508,1.75,1.328,2.344c0.816,0.592,1.754,0.889,2.805,0.889
		c1.672,0,2.941-0.526,3.808-1.578l1.606,1.754c-1.438,1.486-3.309,2.23-5.613,2.23c-1.871,0-3.461-0.623-4.774-1.867
		c-1.312-1.244-1.969-2.914-1.969-5.012c0-2.096,0.668-3.762,2.008-4.998c1.336-1.236,2.91-1.854,4.722-1.854
		c1.813,0,3.352,0.547,4.621,1.641c1.27,1.094,1.906,2.602,1.906,4.521V238.238z M181.584,236.032h7.64
		c0-1.119-0.352-1.978-1.051-2.58c-0.703-0.602-1.566-0.902-2.594-0.902c-1.027,0-1.949,0.312-2.77,0.94
		C181.994,234.116,181.584,234.964,181.584,236.032z"/>
	<path style="fill:#E56353;" d="M215.51,226.161h2.957v17.514h-3.207l-9.922-12.779v12.779h-2.957v-17.514h2.957l10.172,13.078
		V226.161z"/>
	<path style="fill:#E56353;" d="M234.076,241.884c-1.336,1.328-3.008,1.992-5.012,1.992s-3.676-0.664-5.012-1.992
		c-1.336-1.328-2.004-2.953-2.004-4.873c0-1.922,0.668-3.547,2.004-4.875c1.336-1.326,3.008-1.99,5.012-1.99s3.676,0.664,5.012,1.99
		c1.336,1.328,2.004,2.953,2.004,4.875C236.08,238.931,235.412,240.556,234.076,241.884z M226.045,240.156
		c0.793,0.81,1.801,1.215,3.02,1.215s2.226-0.404,3.02-1.215c0.793-0.811,1.191-1.86,1.191-3.145c0-1.287-0.398-2.334-1.191-3.144
		c-0.793-0.81-1.801-1.217-3.02-1.217s-2.227,0.406-3.02,1.217c-0.793,0.81-1.191,1.857-1.191,3.144
		C224.854,238.296,225.252,239.345,226.045,240.156z"/>
	<path style="fill:#E56353;" d="M242.522,232.601v6.764c0,0.637,0.164,1.141,0.5,1.518c0.336,0.375,0.801,0.562,1.402,0.562
		c0.602,0,1.18-0.291,1.731-0.877l1.152,1.98c-0.988,0.885-2.078,1.328-3.269,1.328c-1.196,0-2.215-0.414-3.059-1.24
		c-0.844-0.828-1.266-1.944-1.266-3.346v-6.689h-1.676v-2.256h1.676v-4.184h2.808v4.184h3.508v2.256H242.522z"/>
	<path style="fill:#E56353;" d="M157.229,258.984v4.81h7.77v2.73h-7.77v7.217h-2.957v-17.514h11.676l-0.024,2.756H157.229z"/>
	<path style="fill:#E56353;" d="M179.78,271.95c-1.336,1.328-3.008,1.992-5.012,1.992c-2.004,0-3.676-0.664-5.012-1.992
		c-1.336-1.328-2.004-2.953-2.004-4.873c0-1.922,0.668-3.547,2.004-4.875c1.336-1.326,3.008-1.99,5.012-1.99
		c2.004,0,3.676,0.664,5.012,1.99c1.336,1.328,2.004,2.953,2.004,4.875C181.784,268.997,181.116,270.622,179.78,271.95z
		 M171.748,270.222c0.793,0.81,1.801,1.215,3.02,1.215c1.219,0,2.226-0.404,3.02-1.215c0.793-0.811,1.191-1.86,1.191-3.145
		c0-1.287-0.398-2.334-1.191-3.144c-0.793-0.81-1.801-1.217-3.02-1.217c-1.219,0-2.227,0.406-3.02,1.217
		c-0.793,0.81-1.192,1.857-1.192,3.144C170.557,268.362,170.955,269.411,171.748,270.222z"/>
	<path style="fill:#E56353;" d="M194.288,267.628v-7.217h2.804v13.33h-2.804v-2.43c-0.453,0.818-1.074,1.461-1.867,1.928
		c-0.793,0.468-1.652,0.703-2.57,0.703c-1.504,0-2.719-0.459-3.645-1.379c-0.926-0.918-1.39-2.246-1.39-3.984v-8.168h2.805v7.316
		c0,2.455,1.019,3.684,3.058,3.684c0.969,0,1.812-0.322,2.531-0.965C193.928,269.804,194.288,268.864,194.288,267.628z"/>
	<path style="fill:#E56353;" d="M203.959,266.524v7.217h-2.804v-13.33h2.804v2.432c0.449-0.818,1.074-1.463,1.867-1.93
		c0.793-0.469,1.648-0.701,2.566-0.701c1.504,0,2.719,0.459,3.648,1.377c0.926,0.92,1.391,2.246,1.391,3.984v8.168h-2.809v-7.316
		c0-2.455-1.019-3.684-3.054-3.684c-0.969,0-1.813,0.322-2.531,0.965C204.319,264.349,203.959,265.29,203.959,266.524z"/>
	<path style="fill:#E56353;" d="M218.366,272.038c-1.254-1.27-1.883-2.94-1.883-5.012c0-2.07,0.644-3.724,1.93-4.961
		c1.289-1.236,2.82-1.854,4.598-1.854c1.781,0,3.211,0.75,4.297,2.254v-7.316h2.809v18.592h-2.809v-2.004
		c-1.035,1.469-2.547,2.205-4.535,2.205C221.084,273.942,219.616,273.308,218.366,272.038z M219.291,267.14
		c0,1.278,0.41,2.317,1.227,3.119c0.82,0.801,1.781,1.203,2.883,1.203s2.035-0.406,2.804-1.217c0.77-0.808,1.152-1.85,1.152-3.119
		s-0.383-2.33-1.152-3.182c-0.769-0.852-1.711-1.277-2.832-1.277c-1.117,0-2.078,0.426-2.879,1.277
		C219.694,264.796,219.291,265.86,219.291,267.14z"/>
</g>
<g>
</g>
<g>
</g>
<g>
</g>
<g>
</g>
<g>
</g>
<g>
</g>
<g>
</g>
<g>
</g>
<g>
</g>
<g>
</g>
<g>
</g>
<g>
</g>
<g>
</g>
<g>
</g>
<g>
</g>
</svg>
