<?xml version="1.0" encoding="utf-8"?>
<!--Designed by Vexels.com - 2017 All Rights Reserved - https://vexels.com/terms-and-conditions/-->
<!DOCTYPE svg PUBLIC "-//W3C//DTD SVG 1.1//EN" "http://www.w3.org/Graphics/SVG/1.1/DTD/svg11.dtd">
<svg version="1.1" id="Layer_1" xmlns="http://www.w3.org/2000/svg" xmlns:xlink="http://www.w3.org/1999/xlink" x="0px" y="0px"
	 width="1200px" height="1200px" viewBox="0 0 1200 1200" enable-background="new 0 0 1200 1200" xml:space="preserve">
<g>
	<g>
		<path fill="#5EA7AC" d="M1133.806,512.328c38.574-78.918,5.887-174.14-73.055-212.697c-78.91-38.543-174.143-5.841-212.713,73.074
			c-33.971,69.549-12.561,151.758,47.014,196.668l-63.266,129.461c-5.672,11.689,2.867,27.588,19.143,35.551
			c16.285,7.94,34.129,4.941,39.828-6.74l63.703-130.368C1025.196,614.021,1100.571,580.389,1133.806,512.328z M939.181,548.434
			c-58.459-28.607-82.727-99.167-54.162-157.68c28.607-58.482,99.16-82.714,157.682-54.149
			c58.482,28.587,82.721,99.174,54.152,157.676C1068.276,552.732,997.659,577.002,939.181,548.434z"/>
		<path fill="#5EA7AC" d="M960.185,349.485c0,0,0.123-0.166,0.34-0.458c-23.725,9.84-44.096,27.992-56.258,52.889
			c-0.219,0.426-0.398,0.854-0.584,1.265c0.639,15.356,16.648,11.043,17.691,10.762c0.424-1.003,0.85-2.026,1.373-3.019
			c9.936-20.32,26.619-35.154,46.035-43.098C977.204,351.973,960.185,349.485,960.185,349.485z"/>
	</g>
	<g>
		<path fill="#012B4F" d="M49.999,677.803l25.836,133.933c0,0,9.666,19.302,25.803,22.559l41.973,9.67
			c0,0,12.896-108.075,109.697-101.589c0,0,87.09-1.649,91.949,90.308c0,0,1.615,12.885,25.762,14.542l508.203,4.818
			c0,0,20.963-11.277,24.191-21.006c0,0,17.766-95.148,90.34-90.312c0,0,96.797-1.606,93.572,95.214c0,0,8.098,14.504,19.393,4.826
			l32.244-132.346c0,0,14.512-27.342-69.383-33.836c-83.932-6.475-193.58-11.273-193.58-11.273s-19.344-9.674-24.182-16.153
			L732.431,535.86c0,0-4.98-7.956-25.824-8.117c0,0-233.883-16.087-351.674-3.16c0,0-9.201,0.511-28.111,17.01L222.647,647.157
			c0,0-11.295,11.285-27.441,11.285C195.206,658.442,66.153,664.91,49.999,677.803z M575.419,627.982v-70.287
			c1.924-19.109,19.506-15.645,19.506-15.645l102.385,2.269c17.191,0,25.602,11.093,25.602,11.093l75.604,79.461
			c9.908,11.093-4.211,12.973-4.211,12.973H594.925C574.278,647.453,575.419,627.982,575.419,627.982z M324.849,632.604
			l58.436-80.241c0,0,7.225-11.094,23.297-11.839h127.594c0,0,13.35-1.484,12.623,11.069v83.279c0,0,0.365,12.204-16.061,12.973
			H334.392C334.392,647.846,313.739,645.966,324.849,632.604z"/>
		<path fill="#012B4F" d="M167.015,839.158c0,42.748,34.633,77.385,77.408,77.385c42.752,0,77.41-34.637,77.41-77.385
			c0-42.807-34.658-77.484-77.41-77.484C201.647,761.674,167.015,796.352,167.015,839.158z M207.325,839.158
			c0-20.51,16.6-37.17,37.098-37.17c20.516,0,37.088,16.66,37.088,37.17c0,20.479-16.572,37.093-37.088,37.093
			C223.925,876.251,207.325,859.637,207.325,839.158z"/>
		<path fill="#012B4F" d="M919.56,839.158c0,42.748,34.658,77.385,77.422,77.385c42.762,0,77.455-34.637,77.455-77.385
			c0-42.807-34.693-77.484-77.455-77.484C954.218,761.674,919.56,796.352,919.56,839.158z M959.882,839.158
			c0-20.51,16.637-37.17,37.1-37.17c20.498,0,37.09,16.66,37.09,37.17c0,20.479-16.592,37.093-37.09,37.093
			C976.519,876.251,959.882,859.637,959.882,839.158z"/>
	</g>
</g>
</svg>
